<svg width="43" height="43" viewBox="0 0 43 43" fill="none" xmlns="http://www.w3.org/2000/svg">
<path d="M3 21.5C3 11.2827 11.2827 3 21.5 3C31.7173 3 40 11.2827 40 21.5C40 31.7173 31.7173 40 21.5 40C11.2827 40 3 31.7173 3 21.5Z" fill="white"/>
<path d="M3 21.5C3 11.2827 11.2827 3 21.5 3C31.7173 3 40 11.2827 40 21.5C40 31.7173 31.7173 40 21.5 40C11.2827 40 3 31.7173 3 21.5Z" fill="#0000FF" fill-opacity="0.07"/>
<path d="M21.5 29.9792V12.25M21.5 12.25L14.5625 19.1875M21.5 12.25L28.4375 19.1875" stroke="black" stroke-width="2" stroke-linecap="square"/>
<rect x="1" y="1" width="41" height="41" rx="20.5" stroke="black" stroke-width="2"/>
</svg>
